<svg id="visual" viewBox="0 0 960 540" width="960" height="540" xmlns="http://www.w3.org/2000/svg" xmlns:xlink="http://www.w3.org/1999/xlink" version="1.1"><rect x="0" y="0" width="960" height="540" fill="#4120A9"></rect><defs><linearGradient id="grad1_0" x1="43.8%" y1="0%" x2="100%" y2="100%"><stop offset="14.444444444444446%" stop-color="##A16AE8" stop-opacity="1"></stop><stop offset="85.55555555555554%" stop-color="#A16AE8" stop-opacity="1"></stop></linearGradient></defs><defs><linearGradient id="grad1_1" x1="43.8%" y1="0%" x2="100%" y2="100%"><stop offset="14.444444444444446%" stop-color="#A16AE8" stop-opacity="1"></stop><stop offset="85.55555555555554%" stop-color="#a60a92" stop-opacity="1"></stop></linearGradient></defs><defs><linearGradient id="grad1_2" x1="43.8%" y1="0%" x2="100%" y2="100%"><stop offset="14.444444444444446%" stop-color="#54086b" stop-opacity="1"></stop><stop offset="85.55555555555554%" stop-color="#a60a92" stop-opacity="1"></stop></linearGradient></defs><defs><linearGradient id="grad2_0" x1="0%" y1="0%" x2="56.3%" y2="100%"><stop offset="14.444444444444446%" stop-color="#A16AE8" stop-opacity="1"></stop><stop offset="85.55555555555554%" stop-color="#A16AE8" stop-opacity="1"></stop></linearGradient></defs><defs><linearGradient id="grad2_1" x1="0%" y1="0%" x2="56.3%" y2="100%"><stop offset="14.444444444444446%" stop-color="#a60a92" stop-opacity="1"></stop><stop offset="85.55555555555554%" stop-color="#A16AE8" stop-opacity="1"></stop></linearGradient></defs><defs><linearGradient id="grad2_2" x1="0%" y1="0%" x2="56.3%" y2="100%"><stop offset="14.444444444444446%" stop-color="#a60a92" stop-opacity="1"></stop><stop offset="85.55555555555554%" stop-color="#54086b" stop-opacity="1"></stop></linearGradient></defs><g transform="translate(960, 0)"><path d="M0 405C-59.8 406.3 -119.5 407.6 -155 374.2C-190.5 340.7 -201.6 272.6 -231.2 231.2C-260.8 189.9 -308.9 175.3 -340.9 141.2C-372.9 107.1 -389 53.6 -405 0L0 0Z" fill="#7c0a80"></path><path d="M0 270C-39.8 270.9 -79.7 271.7 -103.3 249.4C-127 227.2 -134.4 181.7 -154.1 154.1C-173.9 126.6 -205.9 116.9 -227.3 94.1C-248.6 71.4 -259.3 35.7 -270 0L0 0Z" fill="#d209a0"></path><path d="M0 135C-19.9 135.4 -39.8 135.9 -51.7 124.7C-63.5 113.6 -67.2 90.9 -77.1 77.1C-86.9 63.3 -103 58.4 -113.6 47.1C-124.3 35.7 -129.7 17.9 -135 0L0 0Z" fill="#A16AE8"></path></g><g transform="translate(0, 540)"><path d="M0 -405C51.8 -398.7 103.5 -392.5 155 -374.2C206.4 -355.9 257.6 -325.6 282.1 -282.1C306.7 -238.7 304.5 -182 320.6 -132.8C336.6 -83.6 370.8 -41.8 405 0L0 0Z" fill="#7c0a80"></path><path d="M0 -270C34.5 -265.8 69 -261.6 103.3 -249.4C137.6 -237.3 171.7 -217.1 188.1 -188.1C204.4 -159.1 203 -121.3 213.7 -88.5C224.4 -55.7 247.2 -27.9 270 0L0 0Z" fill="#d209a0"></path><path d="M0 -135C17.3 -132.9 34.5 -130.8 51.7 -124.7C68.8 -118.6 85.9 -108.5 94 -94C102.2 -79.6 101.5 -60.7 106.9 -44.3C112.2 -27.9 123.6 -13.9 135 0L0 0Z" fill="#A16AE8"></path></g></svg>