<svg id="visual" viewBox="0 0 960 540" width="960" height="540" xmlns="http://www.w3.org/2000/svg" xmlns:xlink="http://www.w3.org/1999/xlink" version="1.1"><rect x="0" y="0" width="960" height="540" fill="#001F3D"></rect><defs><linearGradient id="grad1_0" x1="43.8%" y1="0%" x2="100%" y2="100%"><stop offset="14.444444444444446%" stop-color="#045174" stop-opacity="1"></stop><stop offset="85.55555555555554%" stop-color="#045174" stop-opacity="1"></stop></linearGradient></defs><defs><linearGradient id="grad1_1" x1="43.8%" y1="0%" x2="100%" y2="100%"><stop offset="14.444444444444446%" stop-color="#045174" stop-opacity="1"></stop><stop offset="85.55555555555554%" stop-color="#023758" stop-opacity="1"></stop></linearGradient></defs><defs><linearGradient id="grad1_2" x1="43.8%" y1="0%" x2="100%" y2="100%"><stop offset="14.444444444444446%" stop-color="#001f3d" stop-opacity="1"></stop><stop offset="85.55555555555554%" stop-color="#023758" stop-opacity="1"></stop></linearGradient></defs><defs><linearGradient id="grad2_0" x1="0%" y1="0%" x2="56.3%" y2="100%"><stop offset="14.444444444444446%" stop-color="#045174" stop-opacity="1"></stop><stop offset="85.55555555555554%" stop-color="#045174" stop-opacity="1"></stop></linearGradient></defs><defs><linearGradient id="grad2_1" x1="0%" y1="0%" x2="56.3%" y2="100%"><stop offset="14.444444444444446%" stop-color="#023758" stop-opacity="1"></stop><stop offset="85.55555555555554%" stop-color="#045174" stop-opacity="1"></stop></linearGradient></defs><defs><linearGradient id="grad2_2" x1="0%" y1="0%" x2="56.3%" y2="100%"><stop offset="14.444444444444446%" stop-color="#023758" stop-opacity="1"></stop><stop offset="85.55555555555554%" stop-color="#001f3d" stop-opacity="1"></stop></linearGradient></defs><g transform="translate(960, 0)"><path d="M0 459C-58.1 448 -116.2 436.9 -172.6 416.7C-229 396.4 -283.8 366.9 -324.6 324.6C-365.3 282.2 -392 226.9 -412.1 170.7C-432.1 114.4 -445.6 57.2 -459 0L0 0Z" fill="#012b4b"></path><path d="M0 306C-38.7 298.6 -77.4 291.3 -115.1 277.8C-152.7 264.3 -189.2 244.6 -216.4 216.4C-243.5 188.1 -261.3 151.3 -274.7 113.8C-288.1 76.3 -297 38.1 -306 0L0 0Z" fill="#034466"></path><path d="M0 153C-19.4 149.3 -38.7 145.6 -57.5 138.9C-76.3 132.1 -94.6 122.3 -108.2 108.2C-121.8 94.1 -130.7 75.6 -137.4 56.9C-144 38.1 -148.5 19.1 -153 0L0 0Z" fill="#045174"></path></g><g transform="translate(0, 540)"><path d="M0 -459C58.7 -447.5 117.4 -435.9 171.4 -413.9C225.5 -391.9 274.9 -359.3 318.9 -318.9C362.9 -278.5 401.6 -230.1 424.1 -175.7C446.5 -121.2 452.8 -60.6 459 0L0 0Z" fill="#012b4b"></path><path d="M0 -306C39.1 -298.3 78.3 -290.6 114.3 -275.9C150.3 -261.2 183.3 -239.6 212.6 -212.6C242 -185.6 267.7 -153.4 282.7 -117.1C297.7 -80.8 301.8 -40.4 306 0L0 0Z" fill="#034466"></path><path d="M0 -153C19.6 -149.2 39.1 -145.3 57.1 -138C75.2 -130.6 91.6 -119.8 106.3 -106.3C121 -92.8 133.9 -76.7 141.4 -58.6C148.8 -40.4 150.9 -20.2 153 0L0 0Z" fill="#045174"></path></g></svg>